<svg width="271" height="283" viewBox="0 0 271 283" fill="none" xmlns="http://www.w3.org/2000/svg">
<circle cx="34.0739" cy="268.349" r="13.7887" fill="#B3B3B3"/>
<circle cx="135.5" cy="268.349" r="13.7887" fill="#B3B3B3"/>
<circle cx="74.6445" cy="141.069" r="13.7887" fill="#B3B3B3"/>
<path d="M32.574 250.561C32.574 251.389 33.2455 252.061 34.074 252.061C34.9024 252.061 35.574 251.389 35.574 250.561H32.574ZM72.83 158.423L58.3075 167.862L73.7433 175.719L72.83 158.423ZM34.5092 233.706L35.846 234.386L34.5092 233.706ZM35.574 250.561V235.52H32.574V250.561H35.574ZM35.846 234.386L68.0427 171.134L65.3691 169.773L33.1724 233.025L35.846 234.386ZM35.574 235.52C35.574 235.126 35.6672 234.737 35.846 234.386L33.1724 233.025C32.779 233.798 32.574 234.653 32.574 235.52H35.574Z" fill="black"/>
<circle cx="236.926" cy="268.349" r="13.7887" fill="#B3B3B3"/>
<circle cx="135.5" cy="141.069" r="13.7887" fill="#B3B3B3"/>
<path d="M134 250.56C134 251.388 134.672 252.06 135.5 252.06C136.328 252.06 137 251.388 137 250.56H134ZM135.5 158.857L126.84 173.857H144.16L135.5 158.857ZM137 250.56V172.357H134V250.56H137Z" fill="black"/>
<circle cx="257.211" cy="141.069" r="13.7887" fill="#B3B3B3"/>
<path d="M235.426 250.56C235.426 251.388 236.098 252.06 236.926 252.06C237.755 252.06 238.426 251.388 238.426 250.56H235.426ZM256.225 158.734L244.132 171.134L260.918 175.406L256.225 158.734ZM237.05 234.074L235.596 233.704L237.05 234.074ZM238.426 250.56V235.061H235.426V250.56H238.426ZM238.503 234.444L254.349 172.187L251.441 171.447L235.596 233.704L238.503 234.444ZM238.426 235.061C238.426 234.853 238.452 234.646 238.503 234.444L235.596 233.704C235.483 234.148 235.426 234.603 235.426 235.061H238.426Z" fill="black"/>
<path d="M32.5739 250.56C32.5739 251.388 33.2454 252.06 34.0739 252.06C34.9023 252.06 35.5739 251.388 35.5739 250.56H32.5739ZM121.711 143.28L105.076 148.103L117.57 160.098L121.711 143.28ZM35.5739 250.56V236.169H32.5739V250.56H35.5739ZM36.2705 234.438L113.444 154.057L111.28 151.98L34.1064 232.36L36.2705 234.438ZM35.5739 236.169C35.5739 235.524 35.8235 234.904 36.2705 234.438L34.1064 232.36C33.123 233.385 32.5739 234.749 32.5739 236.169H35.5739Z" fill="black"/>
<path d="M32.5739 250.56C32.5739 251.388 33.2454 252.06 34.0739 252.06C34.9023 252.06 35.5739 251.388 35.5739 250.56H32.5739ZM243.423 143.28L226.212 141.337L233.134 157.214L243.423 143.28ZM36.4751 233.513L37.0747 234.888L36.4751 233.513ZM35.5739 250.56V237.18H32.5739V250.56H35.5739ZM37.0747 234.888L231.647 150.051L230.448 147.301L35.8756 232.138L37.0747 234.888ZM35.5739 237.18C35.5739 236.185 36.1632 235.285 37.0747 234.888L35.8756 232.138C33.8703 233.012 32.5739 234.992 32.5739 237.18H35.5739Z" fill="black"/>
<path d="M134 250.56C134 251.388 134.672 252.06 135.5 252.06C136.329 252.06 137 251.388 137 250.56H134ZM90.2318 144.642L89.2415 161.934L104.712 154.145L90.2318 144.642ZM135.073 233.711L136.413 233.037L135.073 233.711ZM137 250.56V235.51H134V250.56H137ZM136.413 233.037L97.6421 156.025L94.9625 157.374L133.733 234.386L136.413 233.037ZM137 235.51C137 234.651 136.799 233.804 136.413 233.037L133.733 234.386C133.909 234.735 134 235.12 134 235.51H137Z" fill="black"/>
<path d="M235.426 250.56C235.426 251.389 236.098 252.06 236.926 252.06C237.755 252.06 238.426 251.389 238.426 250.56H235.426ZM152.024 143.987L155.964 160.854L168.601 149.008L152.024 143.987ZM235.845 233.406L236.939 232.38L235.845 233.406ZM238.426 250.56V236.142H235.426V250.56H238.426ZM236.939 232.38L162.351 152.811L160.163 154.862L234.75 234.432L236.939 232.38ZM238.426 236.142C238.426 234.745 237.894 233.4 236.939 232.38L234.75 234.432C235.184 234.895 235.426 235.507 235.426 236.142H238.426Z" fill="black"/>
<path d="M134 250.56C134 251.388 134.672 252.06 135.5 252.06C136.329 252.06 137 251.388 137 250.56H134ZM240.4 143.688L223.392 146.964L234.733 160.055L240.4 143.688ZM136.881 233.364L137.863 234.498L136.881 233.364ZM137 250.56V236.387H134V250.56H137ZM137.863 234.498L231.178 153.661L229.214 151.394L135.899 232.23L137.863 234.498ZM137 236.387C137 235.662 137.315 234.972 137.863 234.498L135.899 232.23C134.693 233.275 134 234.792 134 236.387H137Z" fill="black"/>
<circle cx="13.7887" cy="141.069" r="13.7887" fill="#B3B3B3"/>
<path d="M32.5739 250.56C32.5739 251.388 33.2455 252.06 34.0739 252.06C34.9024 252.06 35.5739 251.388 35.5739 250.56H32.5739ZM14.7753 158.734L10.0823 175.407L26.8677 171.134L14.7753 158.734ZM33.9504 234.074L32.4967 234.444L33.9504 234.074ZM35.5739 250.56V235.061H32.5739V250.56H35.5739ZM35.404 233.704L19.5587 171.447L16.6514 172.187L32.4967 234.444L35.404 233.704ZM35.5739 235.061C35.5739 234.603 35.5169 234.148 35.404 233.704L32.4967 234.444C32.548 234.646 32.5739 234.853 32.5739 235.061H35.5739Z" fill="black"/>
<path d="M134 250.56C134 251.388 134.671 252.06 135.5 252.06C136.328 252.06 137 251.388 137 250.56H134ZM30.6003 143.688L36.2674 160.055L47.6083 146.964L30.6003 143.688ZM137 250.56V236.387H134V250.56H137ZM135.101 232.23L41.7863 151.394L39.822 153.661L133.137 234.498L135.101 232.23ZM137 236.387C137 234.792 136.307 233.275 135.101 232.23L133.137 234.498C133.685 234.972 134 235.662 134 236.387H137Z" fill="black"/>
<path d="M235.426 250.56C235.426 251.389 236.098 252.06 236.926 252.06C237.755 252.06 238.426 251.389 238.426 250.56H235.426ZM10.1426 163.276L21.8554 176.036L27.0492 159.512L10.1426 163.276ZM234.126 233.68L234.575 232.249L234.575 232.249L234.126 233.68ZM238.426 250.56V237.496H235.426V250.56H238.426ZM234.575 232.249L23.4711 165.893L22.5715 168.755L233.676 235.111L234.575 232.249ZM238.426 237.496C238.426 235.094 236.867 232.969 234.575 232.249L233.676 235.111C234.718 235.438 235.426 236.404 235.426 237.496H238.426Z" fill="black"/>
<circle cx="34.4716" cy="13.7887" r="13.7887" fill="#B3B3B3"/>
<circle cx="135.898" cy="13.7887" r="13.7887" fill="#B3B3B3"/>
<circle cx="236.131" cy="13.7887" r="13.7887" fill="#B3B3B3"/>
<path d="M12.2887 123.28C12.2887 124.109 12.9603 124.78 13.7887 124.78C14.6171 124.78 15.2887 124.109 15.2887 123.28H12.2887ZM34.4717 31.5771L25.8114 46.5771H43.1319L34.4717 31.5771ZM34.2513 48.2133L32.8339 47.7223L34.2513 48.2133ZM14.0091 106.644L12.5917 106.153L14.0091 106.644ZM15.2887 123.28V107.953H12.2887V123.28H15.2887ZM15.4264 107.135L35.6687 48.7043L32.8339 47.7223L12.5917 106.153L15.4264 107.135ZM35.9717 46.9039V45.0771H32.9717V46.9039H35.9717ZM35.6687 48.7043C35.8693 48.1253 35.9717 47.5167 35.9717 46.9039H32.9717C32.9717 47.1825 32.9251 47.4591 32.8339 47.7223L35.6687 48.7043ZM15.2887 107.953C15.2887 107.675 15.3353 107.398 15.4264 107.135L12.5917 106.153C12.3911 106.732 12.2887 107.341 12.2887 107.953H15.2887Z" fill="black"/>
<path d="M73.1445 123.28C73.1445 124.109 73.8161 124.78 74.6445 124.78C75.473 124.78 76.1445 124.109 76.1445 123.28H73.1445ZM34.4717 31.5771L25.8114 46.5771H43.1319L34.4717 31.5771ZM35.153 48.5897L33.9085 49.4271L35.153 48.5897ZM73.9632 106.268L75.2077 105.43L73.9632 106.268ZM76.1445 123.28V108.501H73.1445V123.28H76.1445ZM75.2077 105.43L36.3975 47.7523L33.9085 49.4271L72.7187 107.105L75.2077 105.43ZM35.9717 46.3567V45.0771H32.9717V46.3567H35.9717ZM36.3975 47.7523C36.1199 47.3398 35.9717 46.8539 35.9717 46.3567H32.9717C32.9717 47.4505 33.2979 48.5196 33.9085 49.4271L36.3975 47.7523ZM76.1445 108.501C76.1445 107.407 75.8184 106.338 75.2077 105.43L72.7187 107.105C72.9963 107.517 73.1445 108.003 73.1445 108.501H76.1445Z" fill="black"/>
<path d="M12.2887 123.28C12.2887 124.109 12.9603 124.78 13.7887 124.78C14.6171 124.78 15.2887 124.109 15.2887 123.28H12.2887ZM119.081 16.4023L102.067 19.6472L113.384 32.7592L119.081 16.4023ZM15.1751 106.084L14.1951 104.948L15.1751 106.084ZM15.2887 123.28V109.112H12.2887V123.28H15.2887ZM16.1552 107.219L109.841 26.3586L107.881 24.0876L14.1951 104.948L16.1552 107.219ZM15.2887 109.112C15.2887 108.385 15.605 107.694 16.1552 107.219L14.1951 104.948C12.9846 105.993 12.2887 107.513 12.2887 109.112H15.2887Z" fill="black"/>
<path d="M12.2887 123.28C12.2887 124.109 12.9603 124.78 13.7887 124.78C14.6171 124.78 15.2887 124.109 15.2887 123.28H12.2887ZM218.342 13.7886L203.342 5.12832V22.4488L218.342 13.7886ZM201.503 14.2049L202.169 15.5488L201.503 14.2049ZM15.2887 123.28V109.762H12.2887V123.28H15.2887ZM16.6781 107.522L202.169 15.5488L200.836 12.861L15.3454 104.834L16.6781 107.522ZM203.279 15.2886H204.842V12.2886H203.279V15.2886ZM202.169 15.5488C202.514 15.3776 202.894 15.2886 203.279 15.2886V12.2886C202.432 12.2886 201.596 12.4845 200.836 12.861L202.169 15.5488ZM15.2887 109.762C15.2887 108.812 15.8271 107.944 16.6781 107.522L15.3454 104.834C13.4731 105.762 12.2887 107.672 12.2887 109.762H15.2887Z" fill="black"/>
<path d="M73.1445 123.28C73.1445 124.109 73.8161 124.78 74.6445 124.78C75.473 124.78 76.1445 124.109 76.1445 123.28H73.1445ZM135.898 31.5771L127.237 46.5771H144.558L135.898 31.5771ZM134.69 48.7546L133.643 47.6805L134.69 48.7546ZM75.8526 106.103L74.8056 105.028L75.8526 106.103ZM76.1445 123.28V108.967H73.1445V123.28H76.1445ZM76.8996 107.177L135.737 49.8288L133.643 47.6805L74.8056 105.028L76.8996 107.177ZM137.398 45.8902V45.0771H134.398V45.8902H137.398ZM135.737 49.8288C136.799 48.7936 137.398 47.3733 137.398 45.8902H134.398C134.398 46.5643 134.125 47.2099 133.643 47.6805L135.737 49.8288ZM76.1445 108.967C76.1445 108.293 76.4168 107.647 76.8996 107.177L74.8056 105.028C73.7435 106.064 73.1445 107.484 73.1445 108.967H76.1445Z" fill="black"/>
<path d="M73.1447 123.28C73.1447 124.109 73.8162 124.78 74.6447 124.78C75.4731 124.78 76.1447 124.109 76.1447 123.28H73.1447ZM222.342 16L205.03 16.519L214.135 31.2527L222.342 16ZM76.5418 106.108L75.7532 104.832L76.5418 106.108ZM76.1447 123.28V109.51H73.1447V123.28H76.1447ZM77.3303 107.384L211.647 24.3732L210.07 21.8213L75.7532 104.832L77.3303 107.384ZM76.1447 109.51C76.1447 108.644 76.5933 107.839 77.3303 107.384L75.7532 104.832C74.1317 105.834 73.1447 107.604 73.1447 109.51H76.1447Z" fill="black"/>
<path d="M134 123.28C134 124.109 134.672 124.78 135.5 124.78C136.329 124.78 137 124.109 137 123.28H134ZM34.4717 31.5771L25.8114 46.5771H43.1319L34.4717 31.5771ZM133.535 106.119L134.298 104.828L133.535 106.119ZM137 123.28V109.563H134V123.28H137ZM134.298 104.828L37.1998 47.447L35.6735 50.0297L132.772 107.41L134.298 104.828ZM35.9717 45.2947V45.0771H32.9717V45.2947H35.9717ZM37.1998 47.447C36.4386 46.9972 35.9717 46.1788 35.9717 45.2947H32.9717C32.9717 47.2398 33.999 49.0402 35.6735 50.0297L37.1998 47.447ZM137 109.563C137 107.618 135.973 105.817 134.298 104.828L132.772 107.41C133.533 107.86 134 108.678 134 109.563H137Z" fill="black"/>
<path d="M134 123.28C134 124.109 134.672 124.78 135.5 124.78C136.328 124.78 137 124.109 137 123.28H134ZM135.5 107.28L134 107.27V107.28H135.5ZM135.898 47.5771L137.398 47.5871V47.5771H135.898ZM135.898 31.5771L127.237 46.5771H144.558L135.898 31.5771ZM137 123.28V107.28H134V123.28H137ZM137 107.29L137.398 47.5871L134.398 47.5672L134 107.27L137 107.29ZM137.398 47.5771V45.0771H134.398V47.5771H137.398Z" fill="black"/>
<path d="M134 123.28C134 124.109 134.672 124.78 135.5 124.78C136.329 124.78 137 124.109 137 123.28H134ZM218.343 13.7886L203.343 5.12832V22.4488L218.343 13.7886ZM201.146 15.4622L202.366 16.3346L201.146 15.4622ZM136.247 106.237L137.467 107.109L136.247 106.237ZM137 123.28V108.563H134V123.28H137ZM137.467 107.109L202.366 16.3346L199.926 14.5898L135.026 105.364L137.467 107.109ZM204.4 15.2886H204.843V12.2886H204.4V15.2886ZM202.366 16.3346C202.836 15.6781 203.593 15.2886 204.4 15.2886V12.2886C202.625 12.2886 200.958 13.1456 199.926 14.5898L202.366 16.3346ZM137 108.563C137 108.042 137.164 107.533 137.467 107.109L135.026 105.364C134.359 106.297 134 107.416 134 108.563H137Z" fill="black"/>
<path d="M255.711 123.28C255.711 124.109 256.383 124.78 257.211 124.78C258.04 124.78 258.711 124.109 258.711 123.28H255.711ZM52.2604 13.7886L67.2604 22.4488V5.12832L52.2604 13.7886ZM69.0988 14.2034L69.764 12.859L69.0988 14.2034ZM254.985 106.179L254.32 107.523L254.985 106.179ZM258.711 123.28V109.764H255.711V123.28H258.711ZM255.651 104.834L69.764 12.859L68.4336 15.5479L254.32 107.523L255.651 104.834ZM67.3249 12.2886H65.7604V15.2886H67.3249V12.2886ZM69.764 12.859C69.0057 12.4838 68.171 12.2886 67.3249 12.2886V15.2886C67.7095 15.2886 68.0889 15.3773 68.4336 15.5479L69.764 12.859ZM258.711 109.764C258.711 107.672 257.525 105.762 255.651 104.834L254.32 107.523C255.172 107.945 255.711 108.813 255.711 109.764H258.711Z" fill="black"/>
<path d="M255.711 123.28C255.711 124.109 256.383 124.78 257.211 124.78C258.04 124.78 258.711 124.109 258.711 123.28H255.711ZM153.686 13.7886L168.686 22.4488V5.12832L153.686 13.7886ZM170.872 15.0549L169.777 16.08L170.872 15.0549ZM256.132 106.127L255.037 107.152L256.132 106.127ZM258.711 123.28V108.86H255.711V123.28H258.711ZM257.227 105.102L171.967 14.0297L169.777 16.08L255.037 107.152L257.227 105.102ZM167.952 12.2886H167.186V15.2886H167.952V12.2886ZM171.967 14.0297C170.927 12.9189 169.473 12.2886 167.952 12.2886V15.2886C168.643 15.2886 169.304 15.5751 169.777 16.08L171.967 14.0297ZM258.711 108.86C258.711 107.464 258.181 106.121 257.227 105.102L255.037 107.152C255.47 107.615 255.711 108.226 255.711 108.86H258.711Z" fill="black"/>
<path d="M255.711 123.28C255.711 124.109 256.383 124.78 257.211 124.78C258.04 124.78 258.711 124.109 258.711 123.28H255.711ZM236.131 31.5771L227.471 46.5771H244.791L236.131 31.5771ZM256.983 106.634L258.398 106.134L256.983 106.634ZM258.711 123.28V107.966H255.711V123.28H258.711ZM258.398 106.134L237.773 47.7241L234.945 48.7229L255.569 107.133L258.398 106.134ZM237.631 46.8917V45.0771H234.631V46.8917H237.631ZM237.773 47.7241C237.679 47.4567 237.631 47.1752 237.631 46.8917H234.631C234.631 47.5155 234.737 48.1347 234.945 48.7229L237.773 47.7241ZM258.711 107.966C258.711 107.342 258.605 106.723 258.398 106.134L255.569 107.133C255.663 107.401 255.711 107.682 255.711 107.966H258.711Z" fill="black"/>
<circle cx="196.356" cy="141.069" r="13.7887" fill="#B3B3B3"/>
<path d="M32.574 250.56C32.574 251.389 33.2455 252.06 34.074 252.06C34.9024 252.06 35.574 251.389 35.574 250.56H32.574ZM179.182 143.2L161.874 143.863L171.102 158.521L179.182 143.2ZM35.9428 233.384L35.1436 232.114L35.9428 233.384ZM35.574 250.56V236.769H32.574V250.56H35.574ZM36.742 234.653L168.557 151.662L166.958 149.124L35.1436 232.114L36.742 234.653ZM35.574 236.769C35.574 235.909 36.015 235.111 36.742 234.653L35.1436 232.114C33.5443 233.121 32.574 234.879 32.574 236.769H35.574Z" fill="black"/>
<path d="M134 250.56C134 251.389 134.672 252.06 135.5 252.06C136.328 252.06 137 251.389 137 250.56H134ZM193.928 158.037L177.942 164.704L191.708 175.215L193.928 158.037ZM136.321 233.485L135.129 232.575L136.321 233.485ZM137 250.56V235.913H134V250.56H137ZM137.513 234.396L186.928 169.677L184.543 167.857L135.129 232.575L137.513 234.396ZM137 235.913C137 235.365 137.18 234.831 137.513 234.396L135.129 232.575C134.397 233.534 134 234.707 134 235.913H137Z" fill="black"/>
<path d="M235.426 250.56C235.426 251.389 236.098 252.06 236.926 252.06C237.755 252.06 238.426 251.389 238.426 250.56H235.426ZM211.246 144.915L207.051 161.719L223.702 156.95L211.246 144.915ZM236.771 234.02L238.213 233.607L236.771 234.02ZM238.426 250.56V235.122H235.426V250.56H238.426ZM238.213 233.607L216.405 157.479L213.521 158.306L235.329 234.434L238.213 233.607ZM238.426 235.122C238.426 234.61 238.354 234.1 238.213 233.607L235.329 234.434C235.394 234.657 235.426 234.889 235.426 235.122H238.426Z" fill="black"/>
<path d="M194.856 123.28C194.856 124.109 195.527 124.78 196.356 124.78C197.184 124.78 197.856 124.109 197.856 123.28H194.856ZM236.131 31.5771L227.471 46.5771H244.791L236.131 31.5771ZM235.46 48.5845L234.211 47.7528L235.46 48.5845ZM197.027 106.273L195.778 105.441L197.027 106.273ZM197.856 123.28V108.491H194.856V123.28H197.856ZM198.275 107.104L236.708 49.4162L234.211 47.7528L195.778 105.441L198.275 107.104ZM237.631 46.3667V45.0771H234.631V46.3667H237.631ZM236.708 49.4162C237.31 48.513 237.631 47.452 237.631 46.3667H234.631C234.631 46.86 234.485 47.3423 234.211 47.7528L236.708 49.4162ZM197.856 108.491C197.856 107.997 198.002 107.515 198.275 107.104L195.778 105.441C195.177 106.344 194.856 107.405 194.856 108.491H197.856Z" fill="black"/>
<path d="M194.856 123.28C194.856 124.109 195.527 124.78 196.356 124.78C197.184 124.78 197.856 124.109 197.856 123.28H194.856ZM153.686 13.7886L168.686 22.4488V5.12832L153.686 13.7886ZM170.514 16.6913L169.072 17.1028L170.514 16.6913ZM196.202 106.742L197.645 106.331L196.202 106.742ZM197.856 123.28V107.84H194.856V123.28H197.856ZM197.645 106.331L171.957 16.2798L169.072 17.1028L194.76 107.154L197.645 106.331ZM171.957 16.2798C171.283 13.9176 169.124 12.2886 166.668 12.2886V15.2886C167.784 15.2886 168.766 16.029 169.072 17.1028L171.957 16.2798ZM197.856 107.84C197.856 107.329 197.785 106.822 197.645 106.331L194.76 107.154C194.823 107.377 194.856 107.608 194.856 107.84H197.856Z" fill="black"/>
<path d="M194.856 123.28C194.856 124.109 195.527 124.78 196.356 124.78C197.184 124.78 197.856 124.109 197.856 123.28H194.856ZM52.2604 13.7886L67.2604 22.4488V5.12832L52.2604 13.7886ZM69.3141 14.5576L70.1984 13.346L69.3141 14.5576ZM194.714 106.082L193.829 107.293L194.714 106.082ZM197.856 123.28V109.313H194.856V123.28H197.856ZM195.598 104.87L70.1984 13.346L68.4297 15.7692L193.829 107.293L195.598 104.87ZM66.9559 12.2886H65.7604V15.2886H66.9559V12.2886ZM70.1984 13.346C69.2569 12.6589 68.1215 12.2886 66.9559 12.2886V15.2886C67.4857 15.2886 68.0018 15.4569 68.4297 15.7692L70.1984 13.346ZM197.856 109.313C197.856 107.556 197.017 105.906 195.598 104.87L193.829 107.293C194.474 107.764 194.856 108.514 194.856 109.313H197.856Z" fill="black"/>
</svg>
